<svg width="24" height="24" viewBox="0 0 24 24" fill="none" xmlns="http://www.w3.org/2000/svg">
    <path fill-rule="evenodd" clip-rule="evenodd" d="M4.92862 4.92862C5.16304 4.6942 5.48098 4.5625 5.8125 4.5625L15.9375 4.5625C16.4898 4.5625 16.9375 4.11478 16.9375 3.5625C16.9375 3.01022 16.4898 2.5625 15.9375 2.5625L5.8125 2.5625C4.95055 2.5625 4.1239 2.90491 3.5144 3.5144C2.90491 4.1239 2.5625 4.95055 2.5625 5.8125L2.5625 18.1875C2.5625 19.0495 2.90491 19.8761 3.5144 20.4856C4.1239 21.0951 4.95055 21.4375 5.8125 21.4375L20.4375 21.4375C20.9898 21.4375 21.4375 20.9898 21.4375 20.4375L21.4375 8.0625C21.4375 7.51022 20.9898 7.0625 20.4375 7.0625L5.8125 7.0625C5.48098 7.0625 5.16304 6.9308 4.92862 6.69638C4.6942 6.46196 4.5625 6.14402 4.5625 5.8125C4.5625 5.48098 4.6942 5.16304 4.92862 4.92862ZM4.5625 18.1875L4.5625 8.8125C4.95485 8.97598 5.37921 9.0625 5.8125 9.0625L19.4375 9.0625L19.4375 19.4375L5.8125 19.4375C5.48098 19.4375 5.16304 19.3058 4.92862 19.0714C4.6942 18.837 4.5625 18.519 4.5625 18.1875ZM15 12C13.8954 12 13 12.8954 13 14C13 15.1046 13.8954 16 15 16C16.1046 16 17 15.1046 17 14C17 12.8954 16.1046 12 15 12Z" fill="black" />
</svg>
    